<?xml version="1.0" encoding="UTF-8"?>
<svg id="Layer_1" data-name="Layer 1" xmlns="http://www.w3.org/2000/svg" viewBox="0 0 1644.86 967.6">
  <g>
    <path d="M1257.27,465.73v79.39h-2.44v14.86l-.93.7-253.72,43.08-315.54-.02-226.98-31.34v-118.88l-58.63-3.26v-7.12c3.73-1.47,8.18-2.05,12.2-2.86,90.98-18.2,182.17-35.41,273.13-53.71l338.54-.1,283.86,71.08.87.62c-.78,1.29.42,5.42-.96,5.87l-49.41,1.69ZM1300.42,462.47l-277.44-63.12-339.15.02-276.66,49.87,53.75,3.06v-3.26s223.7-32.18,223.7-32.18h315.56s253.83,44.39,253.83,44.39l-.41,3.25,46.82-2.03ZM692.16,424.61v7.33h297.21v-7.33h-297.21ZM1004.03,424.59h-6.92v177.55h6.92v-177.55ZM681.17,425.01v177.12h3.26v-177.12h-3.26ZM673.03,433.16v-6.92l-177.92,25.88v2.62s1.01,0,1.01,0l176.91-21.58ZM1011.76,426.64v6.92l220.26,31.96-220.26-38.88ZM703.16,439.67h-10.99v132.73h10.99v-132.73ZM710.89,439.67v21.99h120.51v-21.99h-120.51ZM966.98,439.67h-113.18v21.99h113.18v-21.99ZM989.37,439.67h-14.66v132.73h14.66v-132.73ZM673.03,440.89l-177.92,21.58v13.44l177.92-13.44v-21.58ZM1052.48,447.41l-40.71-6.11v21.17l40.71,3.66v-18.73ZM1145.3,460.84l-85.09-12.21v18.32l85.09,7.74v-13.84ZM487.38,453.11l-21.94,3.3v95.37s.97.67.97.67l20.97,1.63v-100.97ZM1182.76,466.54l-29.72-3.87v12.82l29.72,2.44v-11.4ZM1204.75,469.8l-14.25-2.04v10.99l14.25,1.63v-10.59ZM767.08,469.39h-56.18v103h56.18v-103ZM831.4,469.39h-56.59v103h56.59v-103ZM906.32,469.39h-52.52v103h52.52v-103ZM966.98,469.39h-52.52v103h52.52v-103ZM673.03,470.21l-177.92,13.44v71.25l177.92,16.69v-101.38ZM1052.48,473.87l-40.71-3.26v100.56l40.71-4.48v-92.83ZM1249.53,476.31l-37.05-5.29v9.77l37.05,3.66v-8.14ZM1145.3,482.42l-85.09-7.74v91.2l85.09-9.77v-73.69ZM1153.04,483.23v71.45c0,.17.64.69.98.59l28.57-3.62.13-65.53-29.68-2.89ZM1190.5,486.9v64.33l14.25-1.63-.06-61.42-14.19-1.28ZM1212.48,488.93v59.44c12.33-.98,24.76-2.49,36.99-4.13v-52s-36.99-3.32-36.99-3.32ZM537.86,573.61c-2.21-2.11-5.7-6.33-8.55-7.13-2.58-.72-5.83-.71-8.38-1.8-.4,1.63-1.86.26-3.19.39-.81.07-1.45.79-2.28.82.42,1.29,1.94,1.29,2.81,1.87,1.8,1.2,5.38,4.52,6.97,5.24,1.17.53,2.51-.08,3.69.38.91.65-.83,2.48,2.61,1.86,2.72-.49-1.39-2.16.42-3.25,2.06,1.03,3.37,2.11,5.89,1.63ZM598.52,571.59c-.12.09,1.9,1.67-.22,2.04s-4.6-2.36-7.01-2.76c-3.02-.5-6.92-.54-10.05-.94-1.06-.14-1.97-.87-3.09-.78l3.66,3.46-1.22,1.41c1.78.72,4.05.55,5.72,1,1.79.48,3.8,1.73,5.48,2.26.21.07.66.11.6-.2l-.81-1.21.96-.57c1.6,1.71,3.87,1.78,5.53,2.63,1.03.53,2.68,2.39,3.9,3.02,1.27.25-.55-1.77.82-2.03.68-.13,4.2,2.21,4.93,2.33.19.03,2.09-.23,2.16-.31,1.88-1.93-6.76-6.7-6.14-9.29l-5.24-.05ZM1045.68,582.86c.46.57,3.18,2.29,3.94,1.97,2.38-1.01,2-4.19,2.83-5.34.73-1.01,2.8-1.02,2.48-3.2-.25-1.72-6.49-5.38-8.56-4.71-.5.44,3.01,3.28,1.05,5.73-.63.79-1.96.93-2.27,1.49-.59,1.06-.2,3.14.53,4.06ZM1029.62,581.69c.89-1.56-3.18-4.7-4.22-5.63s-1.18-2.14-3.29-2.01c-2.73.17-1.92,5.32-3.84,6.28l.24,1.02c1.76-.67,2.55.99,3.64,1.21,1.25.25,6.86.18,7.47-.88ZM898.92,579.38c-1.75-.23-3.5-2.19-4.84-2.69-3.19-1.19-18.84-1.81-21.44-.31-.35.2-.74.31-.91.74,1.04,1.9,1.48,2.95,1.16,5.22-.42,2.9-2.7,2.68-3.12,5.02-1.63,8.98,5.15,9.78,12.1,11.73,2.33.65,6.99,2.08,9.19,2.21,5.68.33,8.49-2.61,13.06-3.21,3.23-.42,8.72,1.6,6.71-3.93-4.36-.16-8.5-2.18-11.62-5.07l-.28-9.7ZM646.28,584.9c.09-2.85-6.01-6.35-8.34-6.93-3.25-.81-7.07.11-10.32-.27-1.92-.22-3.96-1.44-6.3-.82-.87.7,2.95,2.09,3.23,2.26,6.86,4.21,11.47,6.9,19.17,9.74,2.38.88,6.54,2.68,8.77,3.04.85.14,2.23.15,3.03-.18l-9.24-6.84ZM964.74,577.69h-31.96c-.12,4.11,3.09,4.35,5.85,5.76,1.74.89,3.64,1.73,5.43,2.72,1.13.63,2.58,2.32,3.4,2.71,3.31,1.57,9.08.95,13.12,1.95.59.15,4.94,1.6,5.17,1.75,1.17.77,1.5,5.07,3.07,5.07h15.27c-1.03-2.17-4.34-3.14-6.25-4.54-3.2-2.36-6.75-6.63-8.57-10.16-1.18-2.28-.97-4.72-4.52-5.25ZM744.15,584.73c-.49-.67-4.69-3.64-5.58-3.99-3.1-1.21-7.36-.29-10.58-1.84-.83,4.42,9.44,9.06,10.09,11.28.21.7.25,2.8-.11,3.39-.34.55-1.34.52-1.74.91-.36.35-.4,1.26-.89,1.75-.69.7-2.21.54-2.06,1.81l21.58.81c.53-2.19-.98-1.45-1.83-2.45-.48-.56-.44-1.45-.85-2-1.79-2.43-4.96-5.06-6.99-7.05-.58-.57-.62-2.04-1.05-2.63ZM786.01,578.91c-2.74-.72-8.5.53-11.6,0,.2.47.47,1.06.81,1.43,1.84,2.04,2.68,4.28,4.48,6.51,2.31,2.84,6.55,4.68,3.26,8.98-.3.39-1.12.45-1.23.88-.53,2.11,1.07,3.15,3.05,3.39,8.09.99,18.67-.27,26.54-1.49,2.32-.36,7.5,0,8.5-2.19,1.05-2.32-2.85-2.6-3.88-3.04-7.1-3.06-12.5-6.36-19.13-9.78-2.77-1.43-5.78-1.95-8.64-3.16-.71-.3-1.94-1.46-2.15-1.51ZM717.81,597.03v-6.51l1.01-.61,1.02,1.62.05-4.22,1.61-.88c-.07-5.16-6.15-3.95-9.16-6.29-2.44,4.79-8.54,1.21-12.85,2.03.57,2.43,1.6,12.12.44,13.67-.98,1.31-2.39,1.05-2.11,4.04.25,2.62,3.96-.45,4.74-.59,1.53-.28,3.53.12,5.22-.07,2.35-.26,4.52-1.23,6.61-1.56.76-.12,2.97.8,3.41-.62ZM855.63,581.76c-1.65-.38-4.49.28-6.31,0-.93,3.18,1.92,4.95,4.59,5.79,3.92,1.23,2.12-1.23,2.82-2.45.22-.39,2.2-.69,1.55-2.52-1.21.58-2.32-.74-2.65-.82Z"/>
    <path d="M1330.47,561.49c1.7.98.61,9.09.69,11.13.03.8,1.16,2.55.37,3.08l-308.96,90.76-375.35-.06-298.1-73.22.04-15.15,1.02-1.95,296.59,61.87,375.8.02,307.9-76.47ZM1026.83,641.2v15.88l303.34-88.99-.03-2.61-.92.09-302.39,75.64ZM643.31,641.2l-292.73-60.66.19,4.9,292.54,72.05v-16.29ZM1019.09,642.02h-368.05v16.69h368.05v-16.69Z"/>
    <path d="M524.13,507.55c.27.33,3.54,2.8,4.39,3.55,1.21,1.07,2.1.38,2.34,2.99.18,1.99-1.12,1.62-2.18,2.91-.76.93-1.26,2.6-2.22,3.48-1.17,1.08-2.33.61-2.84,2.04,4.71,1.8,2.76,3.92,3.41,7.13.26,1.27,1.27,2.68,1.69,4.04.37,1.21.12,2.35.69,3.79.65,1.64,3.01,3.07,3.12,3.4.92,2.91-6.57.47-7.29-.85l-6.89-13.36c-2.6-.99-3.21-4.46-5.15-6.36-.61-.6-1.52-.71-2-1.26-.32-.37-4.5-7.95-4.61-8.42-.21-.94-.27-7.66-.02-8.4.29-.85,1.81-1.06,2.26-1.6,1.03-1.22,1.54-5.6,4.59-4.16.14.07,2.32,1.84,2.47,2.01.97,1.07,1.27,2.8,2.39,3.71.8.65,1.99.71,2.47,1.19.43.43.38,1.32.81,1.63.49.35,1.37.06,1.84.6.36.41.27,1.39.72,1.93Z"/>
    <path d="M645.06,516.1c1.23,1.02,10.32,7.02,10.46,7.65.47,2.14-8.07,1.33-9.46.91-.86-.26-2.06-1.32-3.16-1.72-4.82-1.75-10.08-3.3-14.6-5.76-1.28-.7-10.1-5.92-10.53-6.37-.74-.76-1.31-2.69-2.95-3.35,2.1-2.1,3.65-.23,5.58.11,4.79.83,10.72-.25,14.88.59,2.21.45,9.81,5.06,9.78,7.93Z"/>
    <path d="M631.89,542.24c-.33.5-2.95.92-3.75.76-2.66-.54-10.49-4.52-12.9-6.25l-8.17-6.89c1.83-1.59,4.51-1.86,6.68-.98,2.88,1.16,8.09,6.91,11.44,8.92,1.3.78,5.49,2.19,6.31,3.05.36.38.65,1,.39,1.4Z"/>
    <path d="M598.53,539.82c-.1,1.06.21,2.38-.08,3.38-.21.7-1.11,1-1.34,1.51-.65,1.46.45,2.85-2.25,3.49-1.34.32-7.67-2.86-8.06-4.18-.17-.57-.35-4.7,0-4.94,2.15-.42,4.89-.78,7.07-.5,1.55.2,2.69,1.85,4.67,1.24Z"/>
    <path d="M661.16,528.09c.83,1.58,1.41,3.22.9,5.03-7.28,2.01-8.38-5.76-.9-5.03Z"/>
    <path d="M663.69,538.22c2.36-1.01,5.92.93,4.26,3.65-.51.83-3.03-.83-3.9-.6l-.36-3.05Z"/>
    <path d="M1129.53,518.55c1.07,1.32,3.3-.12,2.34,4.59l-24.85-.6c-.8-.42.31-3.12.63-3.48.48-.54,1.29-.28,1.82-.62.59-.37.58-1.37,1.04-1.81.75-.74,2.31-.27,1.76-2.16-.4-1.39-7.51-5.8-8.89-7.81-.47-.69-2.34-5.43-2.02-5.88,2.44-.99,5.48.75,7.95,1.18,1.23.21,2.61-.1,3.95.12,1.52.25,6.47,3.62,7.41,4.81,2.55,3.25,5.74,6.47,8.16,9.75.46.63.43,1.57.72,1.93Z"/>
    <path d="M754.46,547.97c.03.08,1.32.83,1.41.84.77.1,4.12-.2,4.3-.03v3.84c-3.31.43-9.04,1.37-9.75-3.25l.07-41.82c1.42-5.12,6.05-2.28,9.67-3.55v4.48c-.44.44-4.75-.84-4.97.69l-.72-.29v39.08Z"/>
    <path d="M781.73,552.85l.41-4.07c1.97-.13,5.1.81,5.32-1.78v-37.11c-.95-2.35-3.64-1.15-5.73-1.41l.4-4.07c3.8.12,8.89-1.52,9.39,3.85,1.2,13.04-.94,27.91-.01,41.15.19,1.37-1.92,3.45-3.06,3.45h-6.72Z"/>
    <path d="M812.56,554.37c-.26.32-1.05.4-1.33.92-.44.84.4,2.14-.27,2.76-1.83,1.71-5.73-.35-7.53-1.45-3.12-1.9-2.78-2.67-2.51-6.34,3.57-2.27,8.28-.84,11.99.53.47.64.22,2.9-.35,3.58Z"/>
    <path d="M921.38,552.85v-4.07c1.97.29,3.93-.29,5.7-.41v-39.08c-1.86-1.07-3.61-.85-5.7-.81v-4.08c4.02.07,8.71-1.33,9.74,3.91-.87,12.74,1.29,27.33.03,39.86-.15,1.44-1.39,4.69-3.05,4.69h-6.72Z"/>
    <path d="M893.7,547.97c1.09-.4,1.09.75,1.81.85.84.11,4-.24,4.3-.03l-.4,4.07c-4.25-.15-9.04,1.34-9.73-4.32.61-12.59-.97-26.18-.06-38.65.49-6.82,4.38-5.51,9.79-5.48v4.08c-1.97-.29-3.93.29-5.7.41v39.08Z"/>
    <path d="M888,486.9c-.11,1.05.22,2.41-.08,3.39-.28.92-1.46.9-1.56,1.38-.37,1.67.79,3.04-2.12,3.52-1.43.24-7.32-2.7-7.96-4.09-.55-1.21-.42-3.62-.02-4.93.72-.5,5.97-.64,7.07-.5,1.55.2,2.69,1.85,4.67,1.24Z"/>
  </g>
  <g>
    <path d="M725.49,6.08l84.79,181.97L893.81,6.08h66.17v5.79h-11.99c-1.93,0-7.51,1.9-9.54,2.86-5.36,2.55-8.19,6.15-9.65,11.85-1.13,4.44-1.7,11.58-1.93,16.26-2.78,55.49,1.48,113.92.87,169.59,1.26,6.76,1.51,12.23,7.69,16.3,1.36.9,8.05,3.97,9.26,3.97h15.3v6.62h-98.43v-6.62h15.3c1.15,0,6.84-2.6,8.13-3.45,6.2-4.04,7.92-9.77,8.81-16.83,1.84-56.3.38-112.78.83-169.14l-91.35,196.09-5.32-.15-90.24-195.94-.05,158.44c1.58,10.79-.59,23.03,11.06,28.65.9.43,6.28,2.33,6.77,2.33h15.3v6.62h-81.06v-6.62h15.3c.74,0,6.2-2.07,7.3-2.63,8.54-4.38,9.16-11.5,10.48-20.13V37.11c-1.7-20.81-13.83-25.37-33.08-25.24v-5.79h65.76Z"/>
    <path d="M1385.13,180.61V37.1c0-2.29-1.45-10.25-2.23-12.66-1.3-4-4.19-7.52-7.94-9.43-1.42-.72-8.91-3.14-10.09-3.14h-12.82v-5.79h81.06v5.79h-12.82c-1.23,0-7.97,2.24-9.43,2.98-4.12,2.09-7.42,5.89-8.77,10.26-.66,2.14-2.07,8.44-2.07,10.34v207.2c-2.74-.14-5.99.89-7.9-1.61-46.99-56.99-93.13-114.71-140.18-171.65-3.39-4.1-7-8.7-10.5-12.61-.49-.55.06-1.58-1.89-1.06v150.95c0,2.59,1.28,10.1,2.05,12.84,1.37,4.84,3.9,8.27,8.44,10.59,1.1.56,6.55,2.63,7.3,2.63h15.3v6.62h-81.06v-6.62h15.3c.74,0,6.19-2.07,7.3-2.63,8.62-4.41,9.32-12.29,10.48-20.95V37.12c-10.05-15.91-27.06-26.23-46.31-25.24v-5.79h64.11l142.68,174.53Z"/>
    <path d="M625.4,6.08l1.24,2.07,1.66,48.39h-6.62c-1.86-14.09-6.02-30.48-20.94-35.73-2.34-.82-8.74-2.33-10.91-2.33h-77.34v92.64h56.66c2.89,0,10.45-1.37,13.47-2.25,14.42-4.21,16.75-18.52,18.5-31.55l5.67-.12v81.06l-5.88-.48c-2.43-12.25-2.52-25.65-15.62-31.37-1.43-.63-9.24-2.89-10.34-2.89h-62.45v88.92c0,.35,1.01,5.55,1.21,6.23,1.93,6.45,9.24,7.64,15.02,8.14,16.05,1.39,56.75,1.5,71.46-2.77,18.38-5.34,30.93-27.32,38.99-43.3l7.31-.13-19.85,58.72h-180.32v-6.62h14.48c1.37,0,8.54-3.01,10.09-3.98,6.46-4.05,7.6-10.03,8.51-17.13-2.94-57.57,3.95-119.09.05-176.2-.58-8.48-1.52-16.83-9.96-20.64-1.84-.83-8.68-2.9-10.34-2.9h-12.82v-5.79h179.08Z"/>
    <path d="M1154.78,6.08l1.24,2.07,1.66,48.39h-6.62c-1.86-14.09-6.02-30.48-20.94-35.73-2.34-.82-8.74-2.33-10.91-2.33h-77.34v92.64h56.66c2.89,0,10.45-1.37,13.47-2.25,14.42-4.21,16.75-18.52,18.5-31.55l5.67-.12v81.06l-5.88-.48c-2.43-12.25-2.52-25.65-15.62-31.37-1.43-.63-9.24-2.89-10.34-2.89h-62.45v88.92c0,.35,1.01,5.55,1.21,6.23,1.93,6.45,9.24,7.64,15.02,8.14,16.05,1.39,56.75,1.5,71.46-2.77,18.38-5.34,30.93-27.32,38.99-43.3l7.31-.13-19.85,58.72h-180.32v-6.62h14.48c1.37,0,8.54-3.01,10.09-3.98,6.46-4.05,7.6-10.03,8.51-17.13-2.94-57.57,3.95-119.09.05-176.2-.58-8.48-1.52-16.83-9.96-20.64-1.84-.83-8.68-2.9-10.34-2.9h-12.82v-5.79h179.08Z"/>
    <path d="M199.84.29l4.96,79.41-5.4-.81c-9.14-35.04-33.03-63.64-71.12-66.18C56.16,7.89,36.15,78.36,39.34,137.22c2.63,48.62,28.61,89.23,80.64,92.23,32.11,1.85,52.37-8.82,72.84-32.29,2.09-2.39,10.77-14.72,11.98-15.38,1.33-.73,4.94,1.89,4.98,3.34-14.87,28.3-39.09,50.64-71.12,57.14C50.56,260.13-10.66,189.37,1.55,104.32,11.09,37.87,71.08-10.19,138.65,2.34c12.79,2.37,20.75,6.83,32.27,11.57,7.03,2.9,12.1,4.85,17.78-2.02,4.47-5.41,2.6-13.51,11.15-11.6Z"/>
    <path d="M1642.38,6.08l2.49,54.6h-6.61c-.86-14.94-6.61-30.01-20.94-36.56-3.02-1.38-12.02-3.98-15.05-3.98h-39.29v193.14c0,2.35,2.61,10.35,4.13,12.41,1.68,2.28,10.27,7.02,12.83,7.02h15.3v6.62h-98.43v-6.62h15.3c2.28,0,9.92-4.3,11.7-6.09,5.34-5.35,4.61-11.6,5.22-18.35.1-1.05.86-2.18.86-2.45V20.14h-38.46c-2.56,0-10.63,1.54-13.28,2.44-14.37,4.89-22.95,23.68-22.7,38.09h-6.63s2.49-54.6,2.49-54.6h191.07Z"/>
    <path d="M335.49,6.08v5.79c-14.42-.11-35.05,1.06-37.84,18.82.63,56.07-4.36,116.05-1.08,171.88.87,14.81,2.88,20.66,18.66,21.87,16.69,1.28,56.64,1.53,71.73-3.52,19.38-6.49,31.75-27.9,37.87-46.09l5.78.83-20.27,63.69h-179.9v-6.62h15.3c.96,0,5.26-1.98,6.5-2.6,8.97-4.46,10.02-10.83,11.27-20.16-2.94-56.72,3.95-117.47.05-173.72-.32-4.6-1.89-13.89-4.99-17.35-2.4-2.68-11.89-7.02-15.31-7.02h-12.82v-5.79h105.05Z"/>
  </g>
  <g>
    <path d="M874.65,963.66v-3.95c8.09-.02,17.96-.09,21-9.13.96-2.85,1.39-7.23,1.56-10.27,2.06-37.61-1.09-77.64-.65-115.39-2.12-12.46-10.58-12.27-21.37-12.41l-.53-4.26,71.25-.02c1.15-.05,2.24.53,3.36.58,36.57,1.79,65.56,10.86,77.82,48.87,17.91,55.52-18.28,106.54-76.67,106l-75.76-.02ZM919.2,952.33c29.07,8.29,59.13,1.96,75.61-24.75,14.56-23.59,14.02-63-2.03-85.72-17.25-24.42-45.95-28.81-73.63-21.76l.05,132.22Z"/>
    <path d="M1213.61,963.66v-3.95c8.09-.02,17.96-.09,21-9.13.96-2.85,1.39-7.23,1.56-10.27,2.06-37.61-1.09-77.64-.65-115.39-2.12-12.46-10.58-12.27-21.37-12.41l-.53-4.26,71.25-.02c1.15-.05,2.24.53,3.36.58,36.57,1.79,65.56,10.86,77.82,48.87,17.91,55.52-18.28,106.54-76.67,106l-75.76-.02ZM1258.17,952.33c29.07,8.29,59.13,1.96,75.61-24.75,14.56-23.59,14.02-63-2.03-85.72-17.25-24.42-45.95-28.81-73.63-21.76l.05,132.22Z"/>
    <path d="M481.07,963.66c.12-1.16-.44-3.56.54-4.25.46-.33,6.36-1.4,8.05-2.08,6.77-2.71,8.91-8.71,12.53-14.49l58.89-137.9,4.5.28c.92,2.36,2,4.67,3.02,6.99,17.75,40.27,32.77,81.89,50.88,121.98,5.44,12.04,10.77,25.73,26.57,24.95v4.51h-60.81v-4.51c4.65.43,12.1-.97,14.56-5.42s-.6-11.78-2.17-16.26c-2.98-8.51-7.43-16.91-10.68-25.35l-60.49-.29c-2.62,9.9-14.98,28.3-14.44,38.02.44,8.13,11.82,9.5,18.04,9.31v4.51h-48.99ZM530.62,903.41h52.93l-26.74-62.5-26.19,62.5Z"/>
    <path d="M1041.88,963.66c.12-1.16-.44-3.56.54-4.25.46-.33,6.36-1.4,8.05-2.08,6.77-2.71,8.91-8.71,12.53-14.49l58.89-137.9,4.5.28c.92,2.36,2,4.67,3.02,6.99,17.75,40.27,32.77,81.89,50.88,121.98,5.44,12.04,10.77,25.73,26.57,24.95v4.51h-60.81v-4.51c4.65.43,12.1-.97,14.56-5.42,2.42-4.36-.6-11.78-2.17-16.26-2.98-8.51-7.43-16.91-10.68-25.35l-60.49-.29c-2.62,9.9-14.98,28.3-14.44,38.02.44,8.13,11.82,9.5,18.04,9.31v4.51h-48.99ZM1091.43,903.41h52.93l-26.74-62.5-26.19,62.5Z"/>
    <path d="M464.18,804.87l3.38,52.93-3.3-.08c-6.4-22.57-19.63-41.08-44.35-44.33-35.23-4.63-55.68,19.92-60.86,52.18-7.47,46.59,7.61,95.93,63.74,91.33,19.66-1.61,33.97-15.93,44.3-31.44,6.09.65,3.05,3.67,1.05,6.97-33.97,55.92-117.49,42.25-133.86-20.44-16.89-64.68,38.4-127.08,104.55-101.17,8.74,3.42,14.47,9.76,20.22-2.34,1.48-3.11.04-4.14,5.14-3.6Z"/>
    <path d="M723.75,808.26v4.5h-10.42c-.98,0-5.31,1.44-6.49,1.95-7.45,3.18-8.47,8.26-8.98,15.79-2.45,35.61,1.84,73.92-.03,109.81.69,7.19,1.7,12.39,9.88,13.2,8.56.85,19.5.91,28.17.59,20.66-.76,31.36-2.72,42.02-21.6,1.22-2.16,4.35-10.13,5.24-11.1,1.03-1.11,2.38.08,3.66.03l-12.95,42.22h-120.5v-3.94c7.03.06,17.44-.15,20.72-7.72,1.09-2.51,1.66-7.2,1.83-9.99,2.38-38.24-1.26-79.69-.74-118.12-2.25-11.29-11.02-11.52-20.88-11.21l-.84-.84-.08-3.58h70.38Z"/>
    <path d="M854.1,812.76c-.85.13-4.66,1.79-5.54,2.34-5.05,3.18-5.15,8.36-6,13.71,2.06,37.59-2.78,78.17,0,115.41.34,4.61.92,8.65,4.78,11.55,4.92,3.7,11.83,4.02,17.74,3.94v3.94h-67.01v-3.94c7.04.06,17.44-.14,20.72-7.72,1.06-2.45,1.62-7.27,1.8-10.02,2.43-36.77-1.8-76.12,0-113.16-.82-5.25-.55-9.87-5.44-13.14-.8-.53-6.12-2.91-6.66-2.91h-9.57c-1.32-1.09-1.26-3.5,0-4.5h65.32c1.42.66.99,4.5,0,4.5-3.14.34-7.13-.47-10.14,0Z"/>
  </g>
</svg>