<?xml version="1.0" encoding="UTF-8"?>
<svg id="Layer_1" data-name="Layer 1" xmlns="http://www.w3.org/2000/svg" viewBox="0 0 818.62 388.72">
  <defs>
    <style>
      .cls-1 {
        fill: #fff;
      }
    </style>
  </defs>
  <g>
    <path d="M634.97,233.61c.98-4.51,1.78-9.11,2.02-13.74,1.16-22.5.23-46.98-.04-69.53-.16-13.82,2.62-27.22,2.92-41.04l-1.4-14.76c-3.47,1.54-6.19-2.16-9-3.75l8,1.25-1.04-2.68,1.31-.8c.4-.85-2.11-7.12-2.4-7.4-.41-.39-1.4.03-1.79-.95-.55-1.38-1.83-9.08-2.65-9.61-6.67.62-5.55-1.19-5.94-6.57l3.79.45.5-.95c1.94,1.41,3.37-2.02,4.96-2.01.28,0,.17.9.59,1.01,1.57.42,2.84.27,4.77,1.05.57.23.13,1.56,1.85.49l2.04,3.97-3.5-.75,5,7.76c.37-1.79-.33-3.63-.4-5.25-.12-3.19,1.08-3.77-1.61-6.99-3.28-3.93-5.54-1.21-8.87-2.64-.23-.1-3.94-2.7-4.13-2.88-1.4-1.32,0-2.5,1.47-2.01,1.21.4,2.39,2.32,3.89,2.65,1.65.37,3.35-.12,5.16.34,2.49.63,5.48,3.43,7.24,5.26,2.52-3.11-1.8-11.14-4.73-12.23-.6-.22-2.11.41-3.25.22s-2.77-1.75-4.38-2.15c-1.37-.35-4.58-1.18-5.7-1.34-1.43-.21-2.65.88-3.46.81-.61-.05-2.89-1.91-4.75-2.11-1.23-.13-2.15.4-3.14.23-2.09-.36-3.88-3.84-5.37-5.18,1.31-.64,2.82.52,4.25.28,1.3-.22.84-1.45,1.99-1.58,3.68-.42,5.84,2.99,5.27-3.95,1.89.55,3.51,3.65,5.67,2.95,1.09-.35,2.48-3.99,1.08-3.94-.45.02-1.39,2.78-2.5,2.49-1.23-2.55-1.68-1.28-3.24-1.71-2.49-.7-2.9-2.03-2.48-4.51.57-3.37,2.65-1.71,3.98-2.52,1.13-.68-.83-2.5-1.62-2.89-3.2-1.59-2.37,1.19-2.96,1.57l-3.94.07c-.6-1.61.65-2.85.84-3.84.12-.6-.39-1.27-.14-2.17.87-3.1,1.95-1.9,2.98-2.14,2.31-.55,4.77-1.97,7.34-1.85l-2,2.25c1.38.72,2.52-.92,2.51-2.25h.74s.32.91.32.91c1.88-.94,1.19.22,1.99.8.43.31,1.13.17,1.49.63.45.57.6,2.69,1.02,3.1.11.1,2.34.07,2.93.57.29-1.72-.78-3.04-1.26-4.49-.16-.49-.68-1.61.26-1.51,1.23,2.18,2.43,6.92,5.51,5l-.47,2.19,1.42.86c-1.45,4.94,4.19,9.95,8.56,11.45-.03-2.33,1.14-4.56,1.45-6.81.12-.84.58-6.99.49-7.34-.57-2.13-6.3-2.48-8.19-2.36l-.25-.99c2.23-.71,3.31-3.1,6-2.52l-3.5-.5,2.44-4.34-1.44-1.4c1.65-3.35,4.61-2.98,7.78-3.74-.48-2.79.45-4.8.73-7.52,1.36.78,1.02,3.62,2.21,4.56.97.77,2.01-.08,2.32.15l.49,1.78c.95.11,1.8-.48,2.74-.5,3.51-.07,4.8,5.65,1.94,7.46-2.25,1.43-7.31-.51-8.21,3.05,5.01-1,9.2,1.27,14.01,1.51v-3.51c1.92-.24,3.03.04,4.34,1.45l.85.03c1.3-2.14,2.43-3.3,4.81-4.25l4.5,5.03c-2.25,1.52-1.32,3.05-1,5.25l-2-.49c.18,1.13,1.86.83,2.28,1.47.44.69,0,1.8.34,2.42.15.27,2.11,1.05,2.38,1.86l-2.46,2.06c1.19,1.86,1.35,3.58.39,5.62-4.6,1.5-3.27-3.24-7.08-2.84-.61.06-1.22.95-1.86.68-.96-.41-1.76-2.41-2.53-2.99-2.06-1.52-5.28-1.46-3.96-5.79-3.36.64-9.13-1.73-11.99.26-1.4.97-4.44,8.05-3.02,9,.38.26,3.67-.52,4.13-.77.83-.45.59-2.15,2.36-1.01l1.52-2.99,1.76,4.5.99-1.49c.9.29,1.91,1.73,2.61,1.9s1.39-.48,2.5-.06c1.69.65,5.14,5.2,6.65,6.64l-7.25-3.27c-1.61-.14-1.88,1.26-2.06,1.27-1.54.07-4.24-1.49-5.9-1.46-1.57.03-2.76,1.18-3.69,1.35-1.72.31-2.84-.97-5.26,1.09-1.22,1.03-.54,3.14-1.36,4.52,2.87-.16,4.36,1.23,5.76,3.5l.25-2c2.4,1.45,3.03-.51,3.73-.55,2.56-.17,6.16.18,8.77.3-1.23.85-2.66,1.85-3.98,2.52-2.81,1.44-7.48,2.99-9.91,4.36-.27.15-.4,1.12-1.22,1.51-1.3.63-2.64.49-3.9-.14l-.54,2.7c2.63,1.3,5.52,2.5,8.54,2.31l.2-5.52c3.34-2.78,4.68,1.75,6.63,2.36,1.22.38,4.59-.49,5.9-.87l.5.96c2.38-.52,6.63,0,8.75,1.35.54.35.68,1.44,1.26,1.54.69.13,2.62-.49,3.76.2l-.53,3.43c-1.55-.61-3.57.82-4.22.86-.83.05-3.17-2.07-4.74-1.31l2,4.49c-.31.43-3.87.55-3.51,2l-.49-.99-1.69.96c-1.75-.63-3.64-2.85-5.56-2.48l-.31,1.42-4.7,1.63-7.53-4c-1.25-1.08-.46-2.21-.21-3.54l-4.5-.51-3.01,29.02c4.46.52,7.94-.56,12.01-2.01.32-1.88-1.14-.4-2.22-.51-.68-.07-3.13-.97-3.04-1.99.46-.63,4.92-2.8,5.62-2.89.16-.02,2.97.56,3.12.62.48.22,1.07,1.26,1.28,1.26.3,0,3.83-3.61,3.76-4.49h.73c1.85,2.62,4.36,3.96,7,1.49.58.76,2.59.66,2.78.78.93.59,2.5,5.3,5.49,4.73-2.09,4.04,2.98,2.66,5.5,4-.47.62-.73,2.61-1.11,2.89-.78.59-3.8.04-4.4,1.09l6.49-.49.52,1.99c-2.86,1.42-5.01.51-8.01.51l.5,1.99c-3.12-.2-2.13,1.52-3.15,2.87-1.4,1.86-3.9,1.28-4.87,1.89s.12,2.11-3.25.4l-1.5,1.86c-1.46-1.44-2.22-.18-2.96-.24-1.45-.13-2.82-.72-4.28-.77v3c-2.24-1.63-8.3-1.23-5.45-5.7.93-1.46,5.54-2.89,1.79-4.24-2.11,2.84-8.37,3.19-10.13,4.9-.54.52-3.28,5.59-3.57,6.44-.32.95-1.15,5.5-1.15,6.35v10.76l5-3.25c-1.84-.17-2.86-1.14-4-2.5,1.82-.89,3.42-.62,3-3.25l5.5,2-2-2.99c2.29-1.6,4.37.46,5.26-2.01l1.99,2.44,4.26-.95-.5-2.49c3.36.27,5.93-.25,9,1.5-.98,1.16-3.25,4.98-.53,4.97-.04-1.27,1.67-1.48,1.95-2.31.55-1.58-.24-4.85.08-6.67,2.25,1.64,1.77,7.92,4.76,8.49,1.55.3,3.61-.19,5.24.02l-2.5,1.24c.69,1.44,6.29,1.09,6.01,5.5l-4.51-.25-.26,2.01c-.91-.48-3.94-2.33-4.74-1.5-.18.19-.08,3.34-3.01,3.49v-2c-1.63.58-1.9-.69-2.18-.83-.51-.25-1.12-.09-1.39-.23-1.2-.64-3.04-2.42-3.43-3.7-.5-1.62,2.86.04,2.25-1.24-5.59-3.86-6.09,1.15-9.22,3.79-.82.69-1.96.38-2.04,1.21,1.49.11,3.03-.21,4.35-.9,1.89-.98,2.82-4.11,4.57-1.35l-1.92,2.75h2.5s-.47,2.29-.47,2.29c-.56.39-10.23-.18-11.78-.29-1.45-.1-3.16-1.07-4.4-.9-.9.12-5,2.48-5.82,3.19-2.11,1.82-2.35,3.74-2.56,6.44-.78,9.9.58,20.45,1.52,30.28,1.76-.93,7.53-.76,6.16-3.49-1.48.8-4.28-3.33-3.66-4.01l1.48-.73-2.48-4.77c.69-.68,5.46,4.88,7.69,4.4.52-.11.86-.9,1.35-1.14.64-.31,1.86-.2,1.95-.28.54-.53-1.36-5.95,4.53-4.48-.86,5.24-1.01,8.81,5.5,8.5.54-1.85-2.1-.62-2.5-1l1.29-3.44,1.71.45.47-1.77,2.53-3.23c-.69,2.01,1,2.74,1.39,3.86.3.85.09,2.02.45,3.05.41,1.17,1.54,2.54,1.67,3.34.19,1.08-.25.6-.72.8-2.76,1.15-5.55.1-7.97,2.92-.83.97.08,2.63-2.63,3.01l.3,1.52c-1.81.98-2.73-.35-3.78-.47-4.77-.51-10.78-.91-14.66,2.31l.43,25.93,3,34.77h47.53v33.52c-5.58-.1-11.19.13-16.78.02-66.69-1.26-133.47-1.66-200.14-.54-18.94.32-38.06,1.21-57,1.54l-325.49,5.73,3.5-1.25v-32.52h51.54v-8h38.53c.29-2.07-.75-4.91.75-6.5h37.78v-15.01h42.53v6.51s3,0,3,0v-6.01s43.53,0,43.53,0v-103.05h67.55v-34.52h113.58v33.77l.75.75h112.83v53.03h3.5v72.54h16.51ZM663.48,11.5c.09-2.13,2.05-.46,3-2.25-.92-1.46-1.24.28-2.16.18-.62-.07-1.43-1.06-2.07-.93-1.4.92-.33,2.13.5,3h.74ZM660.49,10.5h-2.75c-.75,1.53-1.04,2.46.5,3.5.49-1.83,2.7-1.54,2.25-3.5ZM662.99,19.01c-1.84.57-5.35-1.09-6.5.49,1.86-.57,6.23,2.44,6.5-.49ZM674.5,18.51l-6.5,2.99,5.24.48.53-.47c-.2-1.23.08-1.96.74-3ZM681.5,21.01l-1.45.04-.54,1.95,2-2ZM680.5,26.51c.1-1.81-1.79-1.57-3-1.49.04.81,2.68,1.77,3,1.49ZM634.97,32.5l-.03-1.74,4.03-2-2.27-1.26c-1.86,1.47-4.3,4.29-6.72,2.01.4,2.05-1.39,1.92-3.01,2.01l2.25,2.99c.72-1.44.75-2.87,2.5-3.49,1.18,1.72,1.06,2.1,3.25,1.48ZM683.51,30.01l-.76-.99-1.24.75,2,.24ZM641.97,31.01c-1.32-.53-1.87,2-2.28,2.03l-2.21-1.03.99,4-3.5-.5c-.03,1.58-.24,3.15.76,4.49,1.39,1.85,2.3.38,4,.46,1.04.05,2.43,1.15,3.74,1.05l-1-4,2.2-.54,1.88,4.97,3.93.57c1.54-1.75-9.58-8.35-8.51-11.5ZM666.49,55.53c-3.98.22-1.07,3.2,1.5,2.5-.62-.93-1.59-.93-1.5-2.5ZM670,60.03c-3.61-.83-3.03.74-4.52,1.73s-4.22.07-3.99,1.76l4.2,2.03c.24-1.06,1.42-.89,1.67-1.16.55-.59-.1-1.82,2.58-1.93l.06-2.44ZM629.47,68.03c-1.29-2.56-3.5-.55-1.73-.02.48.15,1.18-.03,1.73.02ZM638.47,69.53l-1.5-2.49-.28,2,1.78.49ZM635.48,72.03l-1.26-2c-.18,1.78,1.51,4.01,2.14,5.87s.81,4.14,1.36,5.65,2.71,7.12,3.34,8.17c.56.93,1.57.9,2.42,1.33l.78-10.03c-1.64-2.01-4.49-11.16-7.5-10.45l-1.28,1.46ZM398.31,80.54h-8.01v34.02h-65.04v96.55h52.54v28.26l.75.75h9.51l1.75-3h8.51V80.54ZM492.88,80.54h-88.06v80.54h4.5v-19.51h45.78l.75.75v18.76h4v-42.27l.75-.75h32.27v-37.52ZM499.38,80.54l-2.01.29.51,154.79-2.5.49,46.03-2.5v-37.02h52.54v37.02h4.5v-37.02h14.01v-21.51h-64.04v-60.03h-49.03v-34.52ZM673.35,88.19c-1.54-1.3-3.74.28-5.52-.17l-1.11,2.04c-1.3.22-2.1-1.51-3.27-1.28-1.69.32-5.48,2.91-7.45,3.54-1.38.44-3.83-.17-4.51,1.22,1.33-.26.77,1.18,1.3,1.55.56.39,1.89.26,2.49.93l-.29,2.03c.37.5,9.31-5.8,10.79-6,2.35-.31,3.15,1.17,4.99,1.46,2.06.33,4.75-.08,6.89-.05l2.33-2.92c-2.28-.02-3.53.74-5.5-.78-.64-.49-.79-1.27-1.15-1.58ZM686.01,93.54l-.51-2-4.5,1.76,5,.24ZM670.1,97.16c2.14,1.32,4.59-.54,5.56-.51.51.01,3.76,1.74,3.83-.35.04-1.17-5.96-.2-7.18-.32-2.68-.24-4.78-2.06-7.31-.93.13,2.43,3.16,2.08,4.79,2.97l.32-.86ZM612.46,115.05h-59.04v46.02h2.5v-19.51h37.28l.75.75v18.76h18.51v-46.02ZM682.5,120.06c-.84.25-3.16.06-3.5.99,1.19-.03,3,.43,3.5-.99ZM491.88,121.56h-28.52v33.02h28.52v-33.02ZM680,124.55c-.51-1.3-1.69-1.69-3-1.49.37.76,2.22,1.24,3,1.49ZM430.83,144.07h-19.01v17.01h19.01v-17.01ZM452.85,144.07h-19.51v17.01h19.51v-17.01ZM572.93,161.08v-15.76l-.75-.75h-13.26v16.51h14.01ZM491.88,156.57h-28.52v2h27.77c.53,0,.95-1.42.75-2ZM491.88,160.58h-28.52v48.02h28.52v-48.02ZM669.49,164.08l-8-1.5,3.78,2.51,4.23-1.01ZM404.82,163.58v7.5h26.02v-7.5h-26.02ZM433.84,163.58v7.5h26.02v-7.5h-26.02ZM553.92,163.58v7.5h28.02v-7.5h-28.02ZM584.44,163.58v7.5h28.02v-7.5h-28.02ZM661.99,165.58l-2.5-1.01.58,1.92c.99.16,2.26.56,1.92-.91ZM459.85,175.08h-55.04v15.51h50.28l.75.75v45.27h4v-61.53ZM408.32,193.09h-3v41.02h3v-41.02ZM566.43,200.09h-22.01v32.52h22.01v-32.52ZM590.94,200.09h-21.51v32.52h21.51v-32.52ZM491.88,211.1h-28.52v2h28.52v-2ZM491.88,215.6h-28.52v17.51h28.52v-17.51ZM271.23,216.1h-37.53v41.02l37.53-3.5v-37.52ZM375.8,217.1h-50.53v31.52l4.04-.22,1.22-2.79h18.76v-2.5h19.51v-3c.46-.47,6.14.84,7-.75v-22.26ZM276.73,219.6h-3v34.02h3v-34.02ZM195.67,228.11h-.5v32.02h.5v-32.02ZM453.35,229.11h-9.51v5h9.51v-5ZM231.2,231.61h-33.52v28.51l33.52-2.5v-26.01ZM375.29,242.12h-4s0,1.5,0,1.5c1.12-1.11,4.36.46,4-1.5ZM356.78,245.12c-1.41.05-2.85-.1-4.26,0-1,.07-1.45-.4-1.24,1l5.5-.99ZM154.15,245.62h-49.03v26.01l49.03-6.5v-19.51Z"/>
    <path class="cls-1" d="M660.07,166.5l-.58-1.92"/>
  </g>
  <g>
    <path d="M132.13,362.17c-.36,15.51,12.88,20.52,26.01,15.25,2.18-.87,8.16-5.1,9.68-4.78.31.07,2.66,4.29,2.76,4.91.44,2.61-4.86,5.32-6.91,6.39-32.43,16.79-54.79-18-31.04-44.05,17.63-19.34,54.96-17.69,52.54,14.01-.13,1.75-1.03,8.26-3.24,8.26h-49.78ZM134.63,353.17h40.78c2.29,0-1.04-9.06-2.03-10.47-9.69-13.77-34.72-4.13-38.74,10.47Z"/>
    <path d="M603.45,362.17c-1.27,16.27,14.14,20.6,27.01,14.75,1.88-.86,6.22-4.41,7.76-4.27,1.1.1,3.75,5.12,3.52,6.09-.55,2.3-11.63,7.48-14.27,8.2-32.29,8.8-44.09-26.82-22.79-48.3,17.96-18.1,53.27-15.93,51.33,15.3-.12,1.92-.69,8.23-3.28,8.23h-49.28ZM646.98,353.17c-.15-26.08-35.38-19.12-41.53,0h41.53Z"/>
    <path d="M336.77,327.66l-12.12,58.91c-.76.78-7.16.93-7.92.4-1.55-1.09.67-5.69.28-7.28-11.38,9.42-29.68,12.47-40.54.5-9.33-10.29-7.68-25.79.05-36.48,11.15-15.41,35.9-24.1,50.23-8.05.26-1.63.74-8,2.76-8h7.25ZM303.63,335.79c-10.89,1.4-23.27,12.44-24.39,23.64-2.28,22.72,20.06,24.87,34.25,12.74,14.55-12.43,12.68-39.27-9.86-36.38Z"/>
    <path d="M513.39,346.17h38.53l5.52-26.25,1.24-1.77h7.76l-14.12,67.68c-.58,1.13-.92,1.22-2.12,1.38-1.41.19-6.67.52-6.79-1.27l6.52-30.77h-38.28l-7.22,31.18c-.73,1.17-7.74,1.2-8.32.37l-.26-1.28,13.69-65.4,1.12-1.89h7.51c.22,0,.84.79.73,1.21l-5.49,26.81Z"/>
    <path d="M790.98,327.31c28.36-2.55,35.22,27.34,19.1,46.61-11.6,13.87-37.29,21.97-49.22,4.22-13.92-20.7,7.76-48.82,30.12-50.83ZM791.47,335.81c-12.25,1.02-24.79,12.56-25.43,25.09-1.14,22.19,23.8,22.94,36.06,9.54,11.23-12.27,10.29-36.36-10.63-34.63Z"/>
    <path d="M14.12,361.24l-5.53,25.11c-.73,1.17-7.74,1.2-8.33.37l-.26-1.28,14.53-67.06,28.79-.23c15.76,3.5,16.56,21.99,7.51,33.03-10.17,12.4-22.21,9.8-36.71,10.06ZM16.05,352.17h17.26c2.42,0,8-2.95,9.77-4.73,6.06-6.09,7.23-19.49-3.75-20.3-5.9-.44-12.33.36-18.28.02l-5.01,25.01Z"/>
    <path d="M99.18,386.62l.18-4.43c-15.46,12.08-38.47,7.73-36.22-15.7.78-8.07,5.13-28.64,7.68-36.34,1.32-3.99,5.71-2.54,9.06-2.02l.22.78c-1.73,11.49-5.68,23.25-7.39,34.65-.87,5.77-.85,13.3,5.87,15.39,9.53,2.96,21.67-4.06,24.6-13.44,3.53-11.34,4.3-24.7,7.83-36.2.52-2.51,8.17-2.13,8.88-.64l-11.91,56.64c-.19,2.77-8.32,2.09-8.8,1.32Z"/>
    <path d="M416.33,333.66l-10.96,52.82c-9.09,3.35-4.81-3.3-5.55-4.3-9.71,7.64-26.53,8.72-31.4-4.87-7.33-20.43,22.01-43.2,38.41-26.15l3.27-16.5c.91-1.76,4.54-.78,6.24-1.01ZM390.69,351.31c-19.01,2.02-24.45,33.67-2.36,30.15,18.18-2.9,22.13-32.25,2.36-30.15Z"/>
    <path d="M423.83,369.68c-.53,14.89,15.33,14.12,24.28,7.13,3.96,4.37,2.89,4.97-1.42,7.46-18.63,10.77-36.89-4.56-26.78-24.28,11.35-22.12,46.56-18.56,40.24,7.22-.15.61-1.02,2.46-1.54,2.46h-34.77ZM454.35,363.17c-.95-17.81-24.17-13.04-29.02,0h29.02Z"/>
    <path d="M262.22,327.65l7.97.55.06.68c-.72,7.83-2.7,7.67-9.98,7.33l-8.06,38.23c.22,4.84,3.95,5.38,8.01,5.24-.91,5.88.39,8.65-6.7,7.94-7.93-.8-11.62-6.26-10.18-14.05l7.88-37.15-6.54-.48c-1.49-7.18,1.57-9.26,8.51-8.31.65-2.23,1.1-8.88,2.49-10.26.96-.95,7.6-2.27,8.32-1.25,1.02,1.44-2.37,10.95-1.79,11.53Z"/>
    <path d="M682,327.66l-.5,6c6.28-7.17,15.91-8.55,24.27-4.01,7.12,3.86,4.83,6.29-.22,10.79-1.38.29-4.9-3.21-6.69-3.89-8.66-3.27-18.47,2.92-20.63,11.61l-8.09,37.9c-.73,1.63-9.07,2-9.06-.53l12.36-57.04c.18-.27,1.08-.84,1.29-.84h7.25Z"/>
    <path d="M730.04,327.66l-.5,5.5c7.11-6.7,16.72-8.25,25.17-2.91,6.55,4.14,3.05,5.95-1.12,10.19-4.19-1.61-6.24-4.81-11.3-4.82-8.42-.01-13.82,5.34-16.12,12.94-3.52,11.63-4.71,24.82-7.89,36.63-1.06,3.18-5.62,1.92-8.26,1.74l-.88-1.39,13.14-57.89h7.76Z"/>
    <path d="M210.69,333.16c5.89-5.57,13.29-7.71,21.15-4.89,1.8.65,8.27,4.34,7.68,6.4-.24.86-4.38,5.76-5.14,5.91-2.22-.5-3.69-2.8-5.67-3.68-6.98-3.09-16.46.31-19.78,7.25-4.85,13.37-6.15,27.92-9.86,41.67-.43,2.17-8.23,1.52-8.69.89l12.5-58.61,7.84-.23c1.27.89-.21,3.94-.02,5.28Z"/>
    <path d="M588.4,328.2l-12.67,58.53-7.48.38-.76-.75,11.69-56.71c-.07-3.02,8.75-2.13,9.22-1.45Z"/>
    <path d="M581.94,319.65c-.66-.42.59-8.07,1.99-8.76,1.05-.52,7.56-.65,7.96.58s-1,7.03-2.2,8.18h-7.76Z"/>
  </g>
</svg>