<svg xmlns="http://www.w3.org/2000/svg" version="1.1" xmlns:xlink="http://www.w3.org/1999/xlink" width="599.4" height="273.88"><svg xmlns="http://www.w3.org/2000/svg" version="1.1" xmlns:xlink="http://www.w3.org/1999/xlink" width="599.4" height="273.88"><svg id="Layer_1" data-name="Layer 1" xmlns="http://www.w3.org/2000/svg" viewBox="0 0 599.4 273.88">
  <defs>
    <style>
      .cls-1 {
        fill: #fff;
      }
    </style>
  </defs>
  <path d="M535.86,233.61c.98-4.51,1.78-9.11,2.02-13.74,1.16-22.5.23-46.98-.04-69.53-.16-13.82,2.62-27.22,2.92-41.04l-1.4-14.76c-3.47,1.54-6.19-2.16-9-3.75l8,1.25-1.04-2.68,1.31-.8c.4-.85-2.11-7.12-2.4-7.4-.41-.39-1.4.03-1.79-.95-.55-1.38-1.83-9.08-2.65-9.61-6.67.62-5.55-1.19-5.94-6.57l3.79.45.5-.95c1.94,1.41,3.37-2.02,4.96-2.01.28,0,.17.9.59,1.01,1.57.42,2.84.27,4.77,1.05.57.23.13,1.56,1.85.49l2.04,3.97-3.5-.75,5,7.76c.37-1.79-.33-3.63-.4-5.25-.12-3.19,1.08-3.77-1.61-6.99-3.28-3.93-5.54-1.21-8.87-2.64-.23-.1-3.94-2.7-4.13-2.88-1.4-1.32,0-2.5,1.47-2.01,1.21.4,2.39,2.32,3.89,2.65,1.65.37,3.35-.12,5.16.34,2.49.63,5.48,3.43,7.24,5.26,2.52-3.11-1.8-11.14-4.73-12.23-.6-.22-2.11.41-3.25.22s-2.77-1.75-4.38-2.15c-1.37-.35-4.58-1.18-5.7-1.34-1.43-.21-2.65.88-3.46.81-.61-.05-2.89-1.91-4.75-2.11-1.23-.13-2.15.4-3.14.23-2.09-.36-3.88-3.84-5.37-5.18,1.31-.64,2.82.52,4.25.28,1.3-.22.84-1.45,1.99-1.58,3.68-.42,5.84,2.99,5.27-3.95,1.89.55,3.51,3.65,5.67,2.95,1.09-.35,2.48-3.99,1.08-3.94-.45.02-1.39,2.78-2.5,2.49-1.23-2.55-1.68-1.28-3.24-1.71-2.49-.7-2.9-2.03-2.48-4.51.57-3.37,2.65-1.71,3.98-2.52,1.13-.68-.83-2.5-1.62-2.89-3.2-1.59-2.37,1.19-2.96,1.57l-3.94.07c-.6-1.61.65-2.85.84-3.84.12-.6-.39-1.27-.14-2.17.87-3.1,1.95-1.9,2.98-2.14,2.31-.55,4.77-1.97,7.34-1.85l-2,2.25c1.38.72,2.52-.92,2.51-2.25h.74s.32.91.32.91c1.88-.94,1.19.22,1.99.8.43.31,1.13.17,1.49.63.45.57.6,2.69,1.02,3.1.11.1,2.34.07,2.93.57.29-1.72-.78-3.04-1.26-4.49-.16-.49-.68-1.61.26-1.51,1.23,2.18,2.43,6.92,5.51,5l-.47,2.19,1.42.86c-1.45,4.94,4.19,9.95,8.56,11.45-.03-2.33,1.14-4.56,1.45-6.81.12-.84.58-6.99.49-7.34-.57-2.13-6.3-2.48-8.19-2.36l-.25-.99c2.23-.71,3.31-3.1,6-2.52l-3.5-.5,2.44-4.34-1.44-1.4c1.65-3.35,4.61-2.98,7.78-3.74-.48-2.79.45-4.8.73-7.52,1.36.78,1.02,3.62,2.21,4.56.97.77,2.01-.08,2.32.15l.49,1.78c.95.11,1.8-.48,2.74-.5,3.51-.07,4.8,5.65,1.94,7.46-2.25,1.43-7.31-.51-8.21,3.05,5.01-1,9.2,1.27,14.01,1.51v-3.51c1.92-.24,3.03.04,4.34,1.45l.85.03c1.3-2.14,2.43-3.3,4.81-4.25l4.5,5.03c-2.25,1.52-1.32,3.05-1,5.25l-2-.49c.18,1.13,1.86.83,2.28,1.47.44.69,0,1.8.34,2.42.15.27,2.11,1.05,2.38,1.86l-2.46,2.06c1.19,1.86,1.35,3.58.39,5.62-4.6,1.5-3.27-3.24-7.08-2.84-.61.06-1.22.95-1.86.68-.96-.41-1.76-2.41-2.53-2.99-2.06-1.52-5.28-1.46-3.96-5.79-3.36.64-9.13-1.73-11.99.26-1.4.97-4.44,8.05-3.02,9,.38.26,3.67-.52,4.13-.77.83-.45.59-2.15,2.36-1.01l1.52-2.99,1.76,4.5.99-1.49c.9.29,1.91,1.73,2.61,1.9s1.39-.48,2.5-.06c1.69.65,5.14,5.2,6.65,6.64l-7.25-3.27c-1.61-.14-1.88,1.26-2.06,1.27-1.54.07-4.24-1.49-5.9-1.46-1.57.03-2.76,1.18-3.69,1.35-1.72.31-2.84-.97-5.26,1.09-1.22,1.03-.54,3.14-1.36,4.52,2.87-.16,4.36,1.23,5.76,3.5l.25-2c2.4,1.45,3.03-.51,3.73-.55,2.56-.17,6.16.18,8.77.3-1.23.85-2.66,1.85-3.98,2.52-2.81,1.44-7.48,2.99-9.91,4.36-.27.15-.4,1.12-1.22,1.51-1.3.63-2.64.49-3.9-.14l-.54,2.7c2.63,1.3,5.52,2.5,8.54,2.31l.2-5.52c3.34-2.78,4.68,1.75,6.63,2.36,1.22.38,4.59-.49,5.9-.87l.5.96c2.38-.52,6.63,0,8.75,1.35.54.35.68,1.44,1.26,1.54.69.13,2.62-.49,3.76.2l-.53,3.43c-1.55-.61-3.57.82-4.22.86-.83.05-3.17-2.07-4.74-1.31l2,4.49c-.31.43-3.87.55-3.51,2l-.49-.99-1.69.96c-1.75-.63-3.64-2.85-5.56-2.48l-.31,1.42-4.7,1.63-7.53-4c-1.25-1.08-.46-2.21-.21-3.54l-4.5-.51-3.01,29.02c4.46.52,7.94-.56,12.01-2.01.32-1.88-1.14-.4-2.22-.51-.68-.07-3.13-.97-3.04-1.99.46-.63,4.92-2.8,5.62-2.89.16-.02,2.97.56,3.12.62.48.22,1.07,1.26,1.28,1.26.3,0,3.83-3.61,3.76-4.49h.73c1.85,2.62,4.36,3.96,7,1.49.58.76,2.59.66,2.78.78.93.59,2.5,5.3,5.49,4.73-2.09,4.04,2.98,2.66,5.5,4-.47.62-.73,2.61-1.11,2.89-.78.59-3.8.04-4.4,1.09l6.49-.49.52,1.99c-2.86,1.42-5.01.51-8.01.51l.5,1.99c-3.12-.2-2.13,1.52-3.15,2.87-1.4,1.86-3.9,1.28-4.87,1.89s.12,2.11-3.25.4l-1.5,1.86c-1.46-1.44-2.22-.18-2.96-.24-1.45-.13-2.82-.72-4.28-.77v3c-2.24-1.63-8.3-1.23-5.45-5.7.93-1.46,5.54-2.89,1.79-4.24-2.11,2.84-8.37,3.19-10.13,4.9-.54.52-3.28,5.59-3.57,6.44-.32.95-1.15,5.5-1.15,6.35v10.76l5-3.25c-1.84-.17-2.86-1.14-4-2.5,1.82-.89,3.42-.62,3-3.25l5.5,2-2-2.99c2.29-1.6,4.37.46,5.26-2.01l1.99,2.44,4.26-.95-.5-2.49c3.36.27,5.93-.25,9,1.5-.98,1.16-3.25,4.98-.53,4.97-.04-1.27,1.67-1.48,1.95-2.31.55-1.58-.24-4.85.08-6.67,2.25,1.64,1.77,7.92,4.76,8.49,1.55.3,3.61-.19,5.24.02l-2.5,1.24c.69,1.44,6.29,1.09,6.01,5.5l-4.51-.25-.26,2.01c-.91-.48-3.94-2.33-4.74-1.5-.18.19-.08,3.34-3.01,3.49v-2c-1.63.58-1.9-.69-2.18-.83-.51-.25-1.12-.09-1.39-.23-1.2-.64-3.04-2.42-3.43-3.7-.5-1.62,2.86.04,2.25-1.24-5.59-3.86-6.09,1.15-9.22,3.79-.82.69-1.96.38-2.04,1.21,1.49.11,3.03-.21,4.35-.9,1.89-.98,2.82-4.11,4.57-1.35l-1.92,2.75h2.5s-.47,2.29-.47,2.29c-.56.39-10.23-.18-11.78-.29-1.45-.1-3.16-1.07-4.4-.9-.9.12-5,2.48-5.82,3.19-2.11,1.82-2.35,3.74-2.56,6.44-.78,9.9.58,20.45,1.52,30.28,1.76-.93,7.53-.76,6.16-3.49-1.48.8-4.28-3.33-3.66-4.01l1.48-.73-2.48-4.77c.69-.68,5.46,4.88,7.69,4.4.52-.11.86-.9,1.35-1.14.64-.31,1.86-.2,1.95-.28.54-.53-1.36-5.95,4.53-4.48-.86,5.24-1.01,8.81,5.5,8.5.54-1.85-2.1-.62-2.5-1l1.29-3.44,1.71.45.47-1.77,2.53-3.23c-.69,2.01,1,2.74,1.39,3.86.3.85.09,2.02.45,3.05.41,1.17,1.54,2.54,1.67,3.34.19,1.08-.25.6-.72.8-2.76,1.15-5.55.1-7.97,2.92-.83.97.08,2.63-2.63,3.01l.3,1.52c-1.81.98-2.73-.35-3.78-.47-4.77-.51-10.78-.91-14.66,2.31l.43,25.93,3,34.77h47.53v33.52c-5.58-.1-11.19.13-16.78.02-66.69-1.26-133.47-1.66-200.14-.54-18.94.32-38.06,1.21-57,1.54L0,273.88l3.5-1.25v-32.52h51.54v-8h38.53c.29-2.07-.75-4.91.75-6.5h37.78v-15.01h42.53v6.51s3,0,3,0v-6.01s43.53,0,43.53,0v-103.05h67.55v-34.52h113.58v33.77l.75.75h112.83v53.03h3.5v72.54h16.51ZM564.37,11.5c.09-2.13,2.05-.46,3-2.25-.92-1.46-1.24.28-2.16.18-.62-.07-1.43-1.06-2.07-.93-1.4.92-.33,2.13.5,3h.74ZM561.38,10.5h-2.75c-.75,1.53-1.04,2.46.5,3.5.49-1.83,2.7-1.54,2.25-3.5ZM563.88,19.01c-1.84.57-5.35-1.09-6.5.49,1.86-.57,6.23,2.44,6.5-.49ZM575.39,18.51l-6.5,2.99,5.24.48.53-.47c-.2-1.23.08-1.96.74-3ZM582.39,21.01l-1.45.04-.54,1.95,2-2ZM581.39,26.51c.1-1.81-1.79-1.57-3-1.49.04.81,2.68,1.77,3,1.49ZM535.86,32.5l-.03-1.74,4.03-2-2.27-1.26c-1.86,1.47-4.3,4.29-6.72,2.01.4,2.05-1.39,1.92-3.01,2.01l2.25,2.99c.72-1.44.75-2.87,2.5-3.49,1.18,1.72,1.06,2.1,3.25,1.48ZM584.39,30.01l-.76-.99-1.24.75,2,.24ZM542.86,31.01c-1.32-.53-1.87,2-2.28,2.03l-2.21-1.03.99,4-3.5-.5c-.03,1.58-.24,3.15.76,4.49,1.39,1.85,2.3.38,4,.46,1.04.05,2.43,1.15,3.74,1.05l-1-4,2.2-.54,1.88,4.97,3.93.57c1.54-1.75-9.58-8.35-8.51-11.5ZM567.38,55.53c-3.98.22-1.07,3.2,1.5,2.5-.62-.93-1.59-.93-1.5-2.5ZM570.89,60.03c-3.61-.83-3.03.74-4.52,1.73-1.46.97-4.22.07-3.99,1.76l4.2,2.03c.24-1.06,1.42-.89,1.67-1.16.55-.59-.1-1.82,2.58-1.93l.06-2.44ZM530.36,68.03c-1.29-2.56-3.5-.55-1.73-.02.48.15,1.18-.03,1.73.02ZM539.36,69.53l-1.5-2.49-.28,2,1.78.49ZM536.37,72.03l-1.26-2c-.18,1.78,1.51,4.01,2.14,5.87s.81,4.14,1.36,5.65,2.71,7.12,3.34,8.17c.56.93,1.57.9,2.42,1.33l.78-10.03c-1.64-2.01-4.49-11.16-7.5-10.45l-1.28,1.46ZM299.2,80.54h-8.01v34.02h-65.04v96.55h52.54v28.26l.75.75h9.51l1.75-3h8.51V80.54ZM393.76,80.54h-88.06v80.54h4.5v-19.51h45.78l.75.75v18.76h4v-42.27l.75-.75h32.27v-37.52ZM400.27,80.54l-2.01.29.51,154.79-2.5.49,46.03-2.5v-37.02h52.54v37.02h4.5v-37.02h14.01v-21.51h-64.04v-60.03h-49.03v-34.52ZM574.24,88.19c-1.54-1.3-3.74.28-5.52-.17l-1.11,2.04c-1.3.22-2.1-1.51-3.27-1.28-1.69.32-5.48,2.91-7.45,3.54-1.38.44-3.83-.17-4.51,1.22,1.33-.26.77,1.18,1.3,1.55.56.39,1.89.26,2.49.93l-.29,2.03c.37.5,9.31-5.8,10.79-6,2.35-.31,3.15,1.17,4.99,1.46,2.06.33,4.75-.08,6.89-.05l2.33-2.92c-2.28-.02-3.53.74-5.5-.78-.64-.49-.79-1.27-1.15-1.58ZM586.9,93.54l-.51-2-4.5,1.76,5,.24ZM570.99,97.16c2.14,1.32,4.59-.54,5.56-.51.51.01,3.76,1.74,3.83-.35.04-1.17-5.96-.2-7.18-.32-2.68-.24-4.78-2.06-7.31-.93.13,2.43,3.16,2.08,4.79,2.97l.32-.86ZM513.35,115.05h-59.04v46.02h2.5v-19.51h37.28l.75.75v18.76h18.51v-46.02ZM583.39,120.06c-.84.25-3.16.06-3.5.99,1.19-.03,3,.43,3.5-.99ZM392.76,121.56h-28.52v33.02h28.52v-33.02ZM580.89,124.55c-.51-1.3-1.69-1.69-3-1.49.37.76,2.22,1.24,3,1.49ZM331.72,144.07h-19.01v17.01h19.01v-17.01ZM353.74,144.07h-19.51v17.01h19.51v-17.01ZM473.82,161.08v-15.76l-.75-.75h-13.26v16.51h14.01ZM392.76,156.57h-28.52v2h27.77c.53,0,.95-1.42.75-2ZM392.76,160.58h-28.52v48.02h28.52v-48.02ZM570.38,164.08l-8-1.5,3.78,2.51,4.23-1.01ZM305.71,163.58v7.5h26.02v-7.5h-26.02ZM334.72,163.58v7.5h26.02v-7.5h-26.02ZM454.81,163.58v7.5h28.02v-7.5h-28.02ZM485.33,163.58v7.5h28.02v-7.5h-28.02ZM562.88,165.58l-2.5-1.01.58,1.92c.99.16,2.26.56,1.92-.91ZM360.74,175.08h-55.04v15.51h50.28l.75.75v45.27h4v-61.53ZM309.21,193.09h-3v41.02h3v-41.02ZM467.31,200.09h-22.01v32.52h22.01v-32.52ZM491.83,200.09h-21.51v32.52h21.51v-32.52ZM392.76,211.1h-28.52v2h28.52v-2ZM392.76,215.6h-28.52v17.51h28.52v-17.51ZM172.11,216.1h-37.53v41.02l37.53-3.5v-37.52ZM276.69,217.1h-50.53v31.52l4.04-.22,1.22-2.79h18.76v-2.5h19.51v-3c.46-.47,6.14.84,7-.75v-22.26ZM177.62,219.6h-3v34.02h3v-34.02ZM96.56,228.11h-.5v32.02h.5v-32.02ZM354.24,229.11h-9.51v5h9.51v-5ZM132.09,231.61h-33.52v28.51l33.52-2.5v-26.01ZM276.18,242.12h-4s0,1.5,0,1.5c1.12-1.11,4.36.46,4-1.5ZM257.67,245.12c-1.41.05-2.85-.1-4.26,0-1,.07-1.45-.4-1.24,1l5.5-.99ZM55.03,245.62H6v26.01l49.03-6.5v-19.51Z"></path>
  <line class="cls-1" x1="560.96" y1="166.5" x2="560.38" y2="164.58"></line>
</svg></svg><style>@media (prefers-color-scheme: light) { :root { filter: none; } }
@media (prefers-color-scheme: dark) { :root { filter: invert(100%); } }
</style></svg>